<?xml version="1.0" encoding="UTF-8" standalone="no"?>
<svg xmlns="http://www.w3.org/2000/svg" xmlns:xlink="http://www.w3.org/1999/xlink" width="400" height="360" version="1.0">
  <defs>
    <linearGradient id="a">
      <stop offset="0" stop-color="#a0a3e1"/>
      <stop offset="1" stop-color="#dedcfa"/>
    </linearGradient>
    <linearGradient xlink:href="#a" id="b" x1="92.604424" x2="263.82959" y1="304.50995" y2="26.290426" gradientUnits="userSpaceOnUse"/>
  </defs>
  <path fill="url(#b)" d="M374 169a190 152 0 1 1-380 0 190 152 0 1 1 380 0z" transform="rotate(-31.61 211.4303508 146.23746805)"/>
  <g fill-rule="evenodd">
    <path d="M187.50027875 199.8801015 111.810886 206.21948l-75.7242245-50.715028 114.46168928-53.08661876"/>
    <path fill="#646464" d="M151.90223025 46.51590514 71.127402 60.204784l-35.110404 95.299668 119.124585-7.802312"/>
    <path fill="#323232" d="M187.604774 200.089092 217.699406 97.54442l-65.762344-51.272336-30.094632 103.659288 65.762344 50.15772z"/>
    <g opacity=".5">
      <path fill="#fff" d="M180.917078 123.737896a12.62123705 8.26852242-60.29727228 1 1-17.833856 0 12.62123705 8.26852242-60.29727228 1 1 17.833856 0zm-54.94264388-50.81060632a12.62123705 8.26852242-60.29727228 1 1-17.833856 0 12.62123705 8.26852242-60.29727228 1 1 17.833856 0zM107.352422 126.524436a12.62123705 8.26852242-60.29727228 1 1-17.833856 0 12.62123705 8.26852242-60.29727228 1 1 17.833856 0zm-35.69344625 4.83392797a11.45946862 7.50741267-60.29726796 1 1-16.1922674 0 11.45946862 7.50741267-60.29726796 1 1 16.1922674 0zm18.14633859-53.7907997a11.45946862 7.50741267-60.29726796 1 1-16.19226739 0 11.45946862 7.50741267-60.29726796 1 1 16.1922674 0zm28.16805113 82.72416513a6.10435452 9.3177999-45.29735157 1 1-3.4076397 12.71746538 6.10435452 9.3177999-45.29735157 1 1 3.4076397-12.71746539zm1.31095115 26.42566388a4.81154353 7.34442589-45.29741414 1 1-2.68595706 10.02408945 4.81154353 7.34442589-45.29741414 1 1 2.68595706-10.02408945z" opacity="1"/>
    </g>
  </g>
  <g fill-rule="evenodd">
    <path fill="#323232" d="M199.21245825 168.3257235 184.478628 261.047842l70.93892165 61.623485 61.42663266-130.36535361"/>
    <path d="m363.54222342 191.41929636-22.26531286 92.706447-85.90862694 38.61947153 26.40311298-127.0895975"/>
    <path fill="#646464" d="m199.015383 168.26731762 86.30269942-37.43724292 78.42117167 60.68774257-89.84938525 41.77208486-74.87448584-65.0225845z"/>
    <g opacity=".5">
      <path fill="#fff" d="M287.70643421 159.76804627a10.51735009 6.89021245-1.5977936 1 1-7.7207221-12.69809782 10.51735009 6.89021245-1.5977936 1 1 7.7207221 12.69809782zm21.37866927 15.66447888a10.51735009 6.89021245-1.5977936 1 1-7.72072211-12.69809782 10.51735009 6.89021245-1.5977936 1 1 7.7207221 12.69809782zm22.46229894 17.33935661a10.51735009 6.89021245-1.5977936 1 1-7.72072211-12.69809782 10.51735009 6.89021245-1.5977936 1 1 7.7207221 12.69809782zM240.7206483 175.5018955a11.28398648 7.3924578-1.59782075 1 1-8.2835051-13.62369277 11.28398648 7.3924578-1.59782075 1 1 8.2835051 13.62369277zm22.9370139 16.8063138a11.28398648 7.3924578-1.59782075 1 1-8.2835051-13.62369277 11.28398648 7.3924578-1.59782075 1 1 8.2835051 13.62369278zm24.09955838 18.60326428a11.28398648 7.3924578-1.59782075 1 1-8.2835051-13.62369277 11.28398648 7.3924578-1.59782075 1 1 8.2835051 13.62369277zm58.64590538 14.89094542a8.3714431 5.484362-60.29728016 1 1-11.82887568 0 8.3714431 5.484362-60.29728016 1 1 11.82887568 0zm-26.00900706 31.52616676a8.3714431 5.484362-60.29728016 1 1-11.82887567 0 8.3714431 5.484362-60.29728016 1 1 11.82887568 0zm-29.94973191 35.46685819a8.3714431 5.484362-60.29728016 1 1-11.82887568 0 8.3714431 5.484362-60.29728016 1 1 11.82887568 0zm-64.1102323-53.64790983a6.10435452 9.3177999-45.29735157 1 1-3.4076397 12.71746538 6.10435452 9.3177999-45.29735157 1 1 3.4076397-12.71746538zm28.11597682-10.8886642a7.13560462 10.89191393-45.29736933 1 1-3.98331657 14.86591002 7.13560462 10.89191393-45.29736933 1 1 3.98331657-14.86591002zm-41.46926599-33.17743693a7.13560462 10.89191393-45.29736933 1 1-3.98331657 14.86591001 7.13560462 10.89191393-45.29736933 1 1 3.98331657-14.86591001zm29.11637812 87.41452052a6.10435452 9.3177999-45.29735157 1 1-3.4076397 12.71746539 6.10435452 9.3177999-45.29735157 1 1 3.4076397-12.71746539zm-37.83135999-31.52613333a6.10435452 9.3177999-45.29735157 1 1-3.4076397 12.71746539 6.10435452 9.3177999-45.29735157 1 1 3.4076397-12.71746539z" opacity="1"/>
    </g>
  </g>
</svg>